<?xml version="1.0" standalone="no"?><!DOCTYPE svg PUBLIC "-//W3C//DTD SVG 1.1//EN" "http://www.w3.org/Graphics/SVG/1.1/DTD/svg11.dtd"><svg t="1653207484676" class="icon" viewBox="0 0 1024 1024" version="1.1" xmlns="http://www.w3.org/2000/svg" p-id="8249" xmlns:xlink="http://www.w3.org/1999/xlink" width="200" height="200"><defs><style type="text/css"></style></defs><path d="M848 1024H176C78.8 1024 0 945.2 0 848V176C0 78.8 78.8 0 176 0h672c97.2 0 176 78.8 176 176v672c0 97.2-78.8 176-176 176z" fill="#FFFFFF" p-id="8250"></path><path d="M1024 847.1c-43.2 3.6-562 43.9-663.6-89.9V756C257.2 890.2 16 839.1 0 835.5v12.8C0 944.9 79.2 1024 176 1024h672c96.8 0 176-79.1 176-175.7v-1.2zM949.1 135.3h-0.5c-2.8-0.1-5.7-0.1-8.5 0.1-45.1 2.3-89.6-2.7-133.7-11.9-22.5-4.7-44.8-11.1-67.5-14.4-39.5-5.7-72.8 11.8-103.9 33.2-69.1 47.6-127 107.1-180 171.7-54.6 66.6-99.1 139.6-138.6 216.1-47.4 91.8-69.6 141.4-94.1 242.2 0 0.1 0 0.2-0.1 0.3-2.1 8.7 9.8 13.3 14 5.5 1.2-2.2 2.3-4.4 3.4-6.6 18.8-49.6 36-89 39.8-97.6 22.8-51.2 45.9-61.7 101.7-59.9 64.2 2.1 122.4-15.7 174.1-54.4 6.2-4.7 12.9-8.9 19.3-15.9 2.1-2.2 0.3-5.8-2.7-5.6-23 1.5-44.5-0.5-65.5-4.8-3.9-0.8-3.4-6.6 0.6-6.7 11.9-0.2 23.8-0.9 35.7-2.7 69.8-10.1 130.7-38.9 182.8-86.6 2-1.8 5.7-3.5 4.3-6.6-1.8-3.8-5.6-1.5-8.6-1.1-38.2 5.2-76.5 6.8-114.6-0.8-0.1 0-0.2 0-0.4-0.1-4.2-0.8-3.3-7.1 1-6.7 37.6 3.6 74.5-1.6 110.4-17.6 45.1-20 79.2-52.7 108.6-94.6 1.7-2.4-0.3-5.7-3.2-5.3-39.8 5.5-77.5 10.5-114.1-6.3l5.7 0.3c69.6 2.9 127.2-22.7 174.4-73.4 3-3.3 5.7-6.9 8.4-10.4 1.5-2 2.4-4.4 0.7-6.7-1.4-2-3.6-1.2-5.6-0.7-2.4 0.6-4.7 1.3-7.1 1.9-15.8 3.7-34.7 4.1-49 1.4-3.7-0.7-3.6-6 0.1-6.6 44.9-8.3 84.3-26.1 114.8-63.2 1.7-2.1 0.5-5.2-2.1-5.5z" fill="#1C85F5" p-id="8251"></path></svg>