<?xml version="1.0" standalone="no"?><!DOCTYPE svg PUBLIC "-//W3C//DTD SVG 1.1//EN" "http://www.w3.org/Graphics/SVG/1.1/DTD/svg11.dtd"><svg t="1653204574947" class="icon" viewBox="0 0 1024 1024" version="1.1" xmlns="http://www.w3.org/2000/svg" p-id="4475" xmlns:xlink="http://www.w3.org/1999/xlink" width="200" height="200"><defs><style type="text/css"></style></defs><path d="M988.542936 354.570637c2.836565-8.509695 5.67313-17.019391 5.67313-28.365651 0-31.202216-25.529086-56.731302-56.731301-56.731302s-56.731302 25.529086-56.731302 56.731302 25.529086 56.731302 56.731302 56.731302c8.509695 36.875346 14.182825 76.587258 14.182825 113.462604 0 243.944598-198.559557 439.66759-439.66759 439.66759-76.587258 0-150.33795-19.855956-215.578947-56.731302l-11.346261-5.67313-161.68421 62.404432 73.750692-136.155125-14.182825-17.01939C114.880886 703.468144 75.168975 601.351801 75.168975 496.398892c0-243.944598 198.559557-439.66759 439.66759-439.66759 93.606648 0 181.540166 28.365651 255.290859 82.260388l-28.365651 31.202216L875.080332 201.396122l-39.711911-136.155125-28.365651 31.202216C721.905817 34.038781 616.952909 0 512 0 236.853186 0 15.601108 221.252078 15.601108 496.398892c0 110.626039 36.875346 218.415512 107.789474 306.34903L24.110803 1018.32687l255.290859-85.096953c70.914127 36.875346 153.174515 59.567867 232.598338 59.567867 275.146814 0 496.398892-224.088643 496.398892-496.398892 0-48.221607-5.67313-96.443213-19.855956-141.828255z" p-id="4476" fill="#2051ca"></path><path d="M599.933518 499.235457l45.385042 138.99169H710.559557l-164.520776-453.850416h-68.077562l-164.520776 453.850416h62.404432l48.221607-138.99169h175.867036z m-138.99169-116.299169c17.019391-51.058172 34.038781-99.279778 48.221607-153.174515h2.836565c17.019391 53.894737 31.202216 102.116343 48.221607 153.174515l22.69252 68.077562h-147.501385l25.529086-68.077562zM285.074792 694.958449h453.850416v56.731302H285.074792z" p-id="4477" fill="#2051ca"></path></svg>
